<svg width="70" height="179" xmlns="http://www.w3.org/2000/svg" xmlns:xlink="http://www.w3.org/1999/xlink"><defs><path d="M32.99 0v94.238016l-6.99 4.036 6.957318 4.016685a4.026437 4.026437 0 0 1-.000645.004974l-6.966292-4.021659-11.488125 6.632168-.004077-.003248-.007798.005055c-.928203.535898-2.071797.535898-3 0L1.5 99.140041C.571797 98.604144 0 97.613763 0 96.541966V85.006067c0-1.071797.571797-2.062178 1.5-2.598076l5.072-2.928975-.017826-.00981-.000174-7.41119L1.5 69.140042c-.928203-.535899-1.5-1.52628-1.5-2.598077V55.006067c0-1.071797.571797-2.062178 1.5-2.598076l11.490381-6.633975L12.99 0l7.000381 4.041965c.604546.349035 1.254775.584405 1.920935.70611l.000319 48.852357c0 .085906.036733.166571.099092.2228l.0514.037291.707646.406774c.074636.042903.163082.051196.243027.024967l.058015-.026143.692355-.405213c.073563-.043054.124443-.114738.141852-.196241l.006613-.062674-.00004-48.82725c.721193-.111965 1.426576-.356224 2.078786-.732778L32.99 0Z" id="a"/><path d="m36 17.866025 16.485572 9.51795c.928203.535898 1.5 1.526279 1.5 2.598076v19.035898c0 1.071797-.571797 2.062178-1.5 2.598076L36 61.133975c-.928203.535898-2.071797.535898-3 0l-16.485572-9.51795c-.928203-.535898-1.5-1.526279-1.5-2.598076V29.982051c0-1.071797.571797-2.062178 1.5-2.598076L33 17.866025c.928203-.535898 2.071797-.535898 3 0Z" id="f"/><path d="m37.641016.803848 28.641016 16.535898c1.856407 1.071797 3 3.052559 3 5.196152v33.071797c0 2.143594-1.143593 4.124356-3 5.196153L37.641016 77.339746c-1.856406 1.071797-4.143593 1.071797-6 0L3 60.803848c-1.856406-1.071797-3-3.05256-3-5.196153V22.535898c0-2.143593 1.143594-4.124355 3-5.196152L31.641016.803848c1.856407-1.071797 4.143594-1.071797 6 0ZM15.249 29.653l16.566758 8.452192c2.032635 1.037016 3.301086 3.137264 3.272806 5.418975l-.219265 17.616122c-.562103.025052-1.129674-.10793-1.633727-.398946L16.75 51.223394c-.928203-.535898-1.5-1.52628-1.5-2.598076L15.249 29.653Z" id="h"/><path d="m34.641016 78.90426.446654-35.377555c.029914-2.284049-1.239653-4.38697-3.275296-5.423276C16.438729 30.259957 5.36675 24.612147-1.403561 21.16c-7.248564-3.696006-7.08071-3.607823.503561.26455.38835-1.256812.737785-2.129934 1.048303-2.619367.310517-.489433 1.048711-.961298 2.21458-1.415595L34.452903-2.516428 67.506035 17.87411c1.691614 1.04356 2.75665 2.857117 2.844 4.842802l1.57462 35.794713-19.732899 11.3922-.742137.428452-13.954136 8.056003c-.516189.31391-1.240835.485903-2.17394.51598-.933103.030077-1.159945.030077-.680527 0Z" id="m"/><radialGradient cx="-270.160198%" cy="6.854587%" fx="-270.160198%" fy="6.854587%" r="638.854966%" gradientTransform="matrix(.83405 .10312 -.55169 .1559 -.410517 .336448)" id="c"><stop stop-color="#7AE8FF" offset="0%"/><stop stop-color="#F4FBFF" offset="27.405187%"/><stop stop-color="#F1F9FD" stop-opacity=".996801" offset="34.794936%"/><stop stop-color="#004C5B" stop-opacity=".724897" offset="46.504682%"/><stop stop-color="#003C48" stop-opacity=".693307" offset="54.493931%"/><stop stop-color="#00B4D8" stop-opacity=".934018" offset="69.528298%"/><stop stop-color="#0AC" stop-opacity=".913719" offset="85.588746%"/><stop stop-opacity=".572281" offset="100%"/></radialGradient><radialGradient cx="28.859336%" cy="63.002562%" fx="28.859336%" fy="63.002562%" r="62.012004%" id="e"><stop stop-color="#FFF" offset="0%"/><stop stop-color="#C6ECFF" offset="100%"/></radialGradient><radialGradient cx="47.245515%" cy="50%" fx="47.245515%" fy="50%" r="113.528787%" gradientTransform="matrix(.37138 .82319 -.92848 .32927 .761233 -.053554)" id="i"><stop stop-color="#151515" offset="0%"/><stop stop-color="#0073AC" offset="7.100176%"/><stop stop-color="#08C" offset="27.857132%"/><stop stop-color="#04334A" offset="44.986004%"/><stop stop-color="#06577F" offset="49.068206%"/><stop stop-color="#056290" offset="56.174369%"/><stop stop-color="#006BA0" offset="72.042246%"/><stop stop-color="#00ABFF" offset="92.803468%"/><stop stop-color="#00ABFF" offset="100%"/></radialGradient><filter x="-.8%" y="-.8%" width="101.6%" height="101.6%" filterUnits="objectBoundingBox" id="g"><feOffset dx=".5" in="SourceAlpha" result="shadowOffsetInner1"/><feComposite in="shadowOffsetInner1" in2="SourceAlpha" operator="arithmetic" k2="-1" k3="1" result="shadowInnerInner1"/><feColorMatrix values="0 0 0 0 1 0 0 0 0 1 0 0 0 0 1 0 0 0 0.5 0" in="shadowInnerInner1" result="shadowMatrixInner1"/><feOffset dy=".7" in="SourceAlpha" result="shadowOffsetInner2"/><feComposite in="shadowOffsetInner2" in2="SourceAlpha" operator="arithmetic" k2="-1" k3="1" result="shadowInnerInner2"/><feColorMatrix values="0 0 0 0 1 0 0 0 0 1 0 0 0 0 1 0 0 0 0.5 0" in="shadowInnerInner2" result="shadowMatrixInner2"/><feMerge><feMergeNode in="shadowMatrixInner1"/><feMergeNode in="shadowMatrixInner2"/></feMerge></filter><filter x="-.5%" y="-.4%" width="101%" height="100.9%" filterUnits="objectBoundingBox" id="j"><feOffset dx=".5" in="SourceAlpha" result="shadowOffsetInner1"/><feComposite in="shadowOffsetInner1" in2="SourceAlpha" operator="arithmetic" k2="-1" k3="1" result="shadowInnerInner1"/><feColorMatrix values="0 0 0 0 1 0 0 0 0 1 0 0 0 0 1 0 0 0 0.5 0" in="shadowInnerInner1" result="shadowMatrixInner1"/><feOffset dy=".7" in="SourceAlpha" result="shadowOffsetInner2"/><feComposite in="shadowOffsetInner2" in2="SourceAlpha" operator="arithmetic" k2="-1" k3="1" result="shadowInnerInner2"/><feColorMatrix values="0 0 0 0 1 0 0 0 0 1 0 0 0 0 1 0 0 0 0.5 0" in="shadowInnerInner2" result="shadowMatrixInner2"/><feMerge><feMergeNode in="shadowMatrixInner1"/><feMergeNode in="shadowMatrixInner2"/></feMerge></filter><filter x="-.2%" y="-.2%" width="100.4%" height="100.4%" filterUnits="objectBoundingBox" id="n"><feOffset dx=".3" dy="-.2" in="SourceAlpha" result="shadowOffsetInner1"/><feComposite in="shadowOffsetInner1" in2="SourceAlpha" operator="arithmetic" k2="-1" k3="1" result="shadowInnerInner1"/><feColorMatrix values="0 0 0 0 0 0 0 0 0 0.835294118 0 0 0 0 1 0 0 0 0.21410706 0" in="shadowInnerInner1"/></filter><linearGradient x1="50%" y1="0%" x2="35.697122%" y2="100%" id="b"><stop stop-color="#151515" offset="0%"/><stop stop-color="#0073AC" offset="7.958407%"/><stop offset="78.545673%"/><stop offset="100%"/></linearGradient><linearGradient x1="43.423724%" y1=".76008%" x2="86.786146%" y2="82.000405%" id="l"><stop stop-color="#F4FBFF" offset="0%"/><stop stop-color="#E3E9ED" offset="1.560352%"/><stop stop-color="#F4FBFF" offset="4.558296%"/><stop stop-color="#00D5FF" offset="35.062199%"/><stop stop-color="#06D6FF" offset="48.834582%"/><stop stop-color="#007BB9" offset="56.445824%"/><stop stop-color="#06557C" offset="100%"/></linearGradient></defs><g fill="none" fill-rule="evenodd"><g transform="matrix(-1 0 0 1 57.640635 73.297781)"><mask id="d" fill="#fff"><use xlink:href="#a"/></mask><use fill="url(#b)" xlink:href="#a"/><path fill="url(#c)" mask="url(#d)" d="M22.918584-1.867h20v107h-20z"/></g><use fill="url(#e)" xlink:href="#f"/><use fill="#000" filter="url(#g)" xlink:href="#f"/><mask id="k" fill="#fff"><use xlink:href="#h"/></mask><use fill="url(#i)" xlink:href="#h"/><use fill="#000" filter="url(#j)" xlink:href="#h"/><g mask="url(#k)"><use fill="url(#l)" xlink:href="#m"/><use fill="#000" filter="url(#n)" xlink:href="#m"/></g></g></svg>
