<svg xmlns="http://www.w3.org/2000/svg" width="170" height="170" viewBox="0 0 170 170"><g fill="#FAD3D3" transform="rotate(-45 -64.537 295.447)"><path d="M3,7.5 L3,4.5 L4.5,4.5 L4.5,7.5 L3,7.5 Z M0,12 L0,0 L1.5,0 L1.5,1.5 L3,1.5 L3,4.5 L1.5,4.5 L1.5,12 L0,12 Z M6,12 L6,10.5 L4.5,10.5 L4.5,7.5 L6,7.5 L6,0 L7.5,0 L7.5,12 L6,12 Z M9,12 L9,3 L10.5,3 L10.5,12 L9,12 Z M9,1.5 L9,0 L10.5,0 L10.5,1.5 L9,1.5 Z M12,12 L12,3 L13.5,3 L13.5,4.5 L15,4.5 L15,6 L13.5,6 L13.5,12 L12,12 Z M15,4.5 L15,3 L16.5,3 L16.5,4.5 L15,4.5 Z M18,12 L18,3 L19.5,3 L19.5,4.5 L21,4.5 L21,6 L19.5,6 L19.5,12 L18,12 Z M21,4.5 L21,3 L22.5,3 L22.5,4.5 L21,4.5 Z M24,12 L24,3 L25.5,3 L25.5,12 L24,12 Z M24,1.5 L24,0 L25.5,0 L25.5,1.5 L24,1.5 Z M27,10.5 L27,3 L28.5,3 L28.5,10.5 L27,10.5 Z M28.5,12 L28.5,10.5 L31.5,10.5 L31.5,3 L33,3 L33,12 L28.5,12 Z M34.5,12 L34.5,10.5 L39,10.5 L39,12 L34.5,12 Z M39,10.5 L39,7.5 L40.5,7.5 L40.5,10.5 L39,10.5 Z M36,7.5 L36,6 L39,6 L39,7.5 L36,7.5 Z M34.5,6 L34.5,4.5 L36,4.5 L36,6 L34.5,6 Z M36,4.5 L36,3 L39,3 L39,4.5 L36,4.5 Z" transform="translate(65.5 234)"/><path d="M3,7.5 L3,4.5 L4.5,4.5 L4.5,7.5 L3,7.5 Z M0,12 L0,0 L1.5,0 L1.5,1.5 L3,1.5 L3,4.5 L1.5,4.5 L1.5,12 L0,12 Z M6,12 L6,10.5 L4.5,10.5 L4.5,7.5 L6,7.5 L6,0 L7.5,0 L7.5,12 L6,12 Z M9,12 L9,3 L10.5,3 L10.5,12 L9,12 Z M9,1.5 L9,0 L10.5,0 L10.5,1.5 L9,1.5 Z M12,12 L12,3 L13.5,3 L13.5,4.5 L15,4.5 L15,6 L13.5,6 L13.5,12 L12,12 Z M15,4.5 L15,3 L16.5,3 L16.5,4.5 L15,4.5 Z M18,12 L18,3 L19.5,3 L19.5,4.5 L21,4.5 L21,6 L19.5,6 L19.5,12 L18,12 Z M21,4.5 L21,3 L22.5,3 L22.5,4.5 L21,4.5 Z M24,12 L24,3 L25.5,3 L25.5,12 L24,12 Z M24,1.5 L24,0 L25.5,0 L25.5,1.5 L24,1.5 Z M27,10.5 L27,3 L28.5,3 L28.5,10.5 L27,10.5 Z M28.5,12 L28.5,10.5 L31.5,10.5 L31.5,3 L33,3 L33,12 L28.5,12 Z M34.5,12 L34.5,10.5 L39,10.5 L39,12 L34.5,12 Z M39,10.5 L39,7.5 L40.5,7.5 L40.5,10.5 L39,10.5 Z M36,7.5 L36,6 L39,6 L39,7.5 L36,7.5 Z M34.5,6 L34.5,4.5 L36,4.5 L36,6 L34.5,6 Z M36,4.5 L36,3 L39,3 L39,4.5 L36,4.5 Z" transform="translate(65.5 271)"/><path d="M3,7.5 L3,4.5 L4.5,4.5 L4.5,7.5 L3,7.5 Z M0,12 L0,0 L1.5,0 L1.5,1.5 L3,1.5 L3,4.5 L1.5,4.5 L1.5,12 L0,12 Z M6,12 L6,10.5 L4.5,10.5 L4.5,7.5 L6,7.5 L6,0 L7.5,0 L7.5,12 L6,12 Z M9,12 L9,3 L10.5,3 L10.5,12 L9,12 Z M9,1.5 L9,0 L10.5,0 L10.5,1.5 L9,1.5 Z M12,12 L12,3 L13.5,3 L13.5,4.5 L15,4.5 L15,6 L13.5,6 L13.5,12 L12,12 Z M15,4.5 L15,3 L16.5,3 L16.5,4.5 L15,4.5 Z M18,12 L18,3 L19.5,3 L19.5,4.5 L21,4.5 L21,6 L19.5,6 L19.5,12 L18,12 Z M21,4.5 L21,3 L22.5,3 L22.5,4.5 L21,4.5 Z M24,12 L24,3 L25.5,3 L25.5,12 L24,12 Z M24,1.5 L24,0 L25.5,0 L25.5,1.5 L24,1.5 Z M27,10.5 L27,3 L28.5,3 L28.5,10.5 L27,10.5 Z M28.5,12 L28.5,10.5 L31.5,10.5 L31.5,3 L33,3 L33,12 L28.5,12 Z M34.5,12 L34.5,10.5 L39,10.5 L39,12 L34.5,12 Z M39,10.5 L39,7.5 L40.5,7.5 L40.5,10.5 L39,10.5 Z M36,7.5 L36,6 L39,6 L39,7.5 L36,7.5 Z M34.5,6 L34.5,4.5 L36,4.5 L36,6 L34.5,6 Z M36,4.5 L36,3 L39,3 L39,4.5 L36,4.5 Z" transform="translate(196.5 160)"/><path d="M3,7.5 L3,4.5 L4.5,4.5 L4.5,7.5 L3,7.5 Z M0,12 L0,0 L1.5,0 L1.5,1.5 L3,1.5 L3,4.5 L1.5,4.5 L1.5,12 L0,12 Z M6,12 L6,10.5 L4.5,10.5 L4.5,7.5 L6,7.5 L6,0 L7.5,0 L7.5,12 L6,12 Z M9,12 L9,3 L10.5,3 L10.5,12 L9,12 Z M9,1.5 L9,0 L10.5,0 L10.5,1.5 L9,1.5 Z M12,12 L12,3 L13.5,3 L13.5,4.5 L15,4.5 L15,6 L13.5,6 L13.5,12 L12,12 Z M15,4.5 L15,3 L16.5,3 L16.5,4.5 L15,4.5 Z M18,12 L18,3 L19.5,3 L19.5,4.5 L21,4.5 L21,6 L19.5,6 L19.5,12 L18,12 Z M21,4.5 L21,3 L22.5,3 L22.5,4.5 L21,4.5 Z M24,12 L24,3 L25.5,3 L25.5,12 L24,12 Z M24,1.5 L24,0 L25.5,0 L25.5,1.5 L24,1.5 Z M27,10.5 L27,3 L28.5,3 L28.5,10.5 L27,10.5 Z M28.5,12 L28.5,10.5 L31.5,10.5 L31.5,3 L33,3 L33,12 L28.5,12 Z M34.5,12 L34.5,10.5 L39,10.5 L39,12 L34.5,12 Z M39,10.5 L39,7.5 L40.5,7.5 L40.5,10.5 L39,10.5 Z M36,7.5 L36,6 L39,6 L39,7.5 L36,7.5 Z M34.5,6 L34.5,4.5 L36,4.5 L36,6 L34.5,6 Z M36,4.5 L36,3 L39,3 L39,4.5 L36,4.5 Z" transform="translate(196.5 197)"/><path d="M3,7.5 L3,4.5 L4.5,4.5 L4.5,7.5 L3,7.5 Z M0,12 L0,0 L1.5,0 L1.5,1.5 L3,1.5 L3,4.5 L1.5,4.5 L1.5,12 L0,12 Z M6,12 L6,10.5 L4.5,10.5 L4.5,7.5 L6,7.5 L6,0 L7.5,0 L7.5,12 L6,12 Z M9,12 L9,3 L10.5,3 L10.5,12 L9,12 Z M9,1.5 L9,0 L10.5,0 L10.5,1.5 L9,1.5 Z M12,12 L12,3 L13.5,3 L13.5,4.5 L15,4.5 L15,6 L13.5,6 L13.5,12 L12,12 Z M15,4.5 L15,3 L16.5,3 L16.5,4.5 L15,4.5 Z M18,12 L18,3 L19.5,3 L19.5,4.5 L21,4.5 L21,6 L19.5,6 L19.5,12 L18,12 Z M21,4.5 L21,3 L22.5,3 L22.5,4.5 L21,4.5 Z M24,12 L24,3 L25.5,3 L25.5,12 L24,12 Z M24,1.5 L24,0 L25.5,0 L25.5,1.5 L24,1.5 Z M27,10.5 L27,3 L28.5,3 L28.5,10.5 L27,10.5 Z M28.5,12 L28.5,10.5 L31.5,10.5 L31.5,3 L33,3 L33,12 L28.5,12 Z M34.5,12 L34.5,10.5 L39,10.5 L39,12 L34.5,12 Z M39,10.5 L39,7.5 L40.5,7.5 L40.5,10.5 L39,10.5 Z M36,7.5 L36,6 L39,6 L39,7.5 L36,7.5 Z M34.5,6 L34.5,4.5 L36,4.5 L36,6 L34.5,6 Z M36,4.5 L36,3 L39,3 L39,4.5 L36,4.5 Z" transform="translate(196.5 234)"/><path d="M3,7.5 L3,4.5 L4.5,4.5 L4.5,7.5 L3,7.5 Z M0,12 L0,0 L1.5,0 L1.5,1.5 L3,1.5 L3,4.5 L1.5,4.5 L1.5,12 L0,12 Z M6,12 L6,10.5 L4.5,10.5 L4.5,7.5 L6,7.5 L6,0 L7.5,0 L7.5,12 L6,12 Z M9,12 L9,3 L10.5,3 L10.5,12 L9,12 Z M9,1.5 L9,0 L10.5,0 L10.5,1.5 L9,1.5 Z M12,12 L12,3 L13.5,3 L13.5,4.5 L15,4.5 L15,6 L13.5,6 L13.5,12 L12,12 Z M15,4.5 L15,3 L16.5,3 L16.5,4.5 L15,4.5 Z M18,12 L18,3 L19.5,3 L19.5,4.5 L21,4.5 L21,6 L19.5,6 L19.5,12 L18,12 Z M21,4.5 L21,3 L22.5,3 L22.5,4.5 L21,4.5 Z M24,12 L24,3 L25.5,3 L25.5,12 L24,12 Z M24,1.5 L24,0 L25.5,0 L25.5,1.5 L24,1.5 Z M27,10.5 L27,3 L28.5,3 L28.5,10.5 L27,10.5 Z M28.5,12 L28.5,10.5 L31.5,10.5 L31.5,3 L33,3 L33,12 L28.5,12 Z M34.5,12 L34.5,10.5 L39,10.5 L39,12 L34.5,12 Z M39,10.5 L39,7.5 L40.5,7.5 L40.5,10.5 L39,10.5 Z M36,7.5 L36,6 L39,6 L39,7.5 L36,7.5 Z M34.5,6 L34.5,4.5 L36,4.5 L36,6 L34.5,6 Z M36,4.5 L36,3 L39,3 L39,4.5 L36,4.5 Z" transform="translate(196.5 271)"/><path d="M3,7.5 L3,4.5 L4.5,4.5 L4.5,7.5 L3,7.5 Z M0,12 L0,0 L1.5,0 L1.5,1.5 L3,1.5 L3,4.5 L1.5,4.5 L1.5,12 L0,12 Z M6,12 L6,10.5 L4.5,10.5 L4.5,7.5 L6,7.5 L6,0 L7.5,0 L7.5,12 L6,12 Z M9,12 L9,3 L10.5,3 L10.5,12 L9,12 Z M9,1.5 L9,0 L10.5,0 L10.5,1.5 L9,1.5 Z M12,12 L12,3 L13.5,3 L13.5,4.5 L15,4.5 L15,6 L13.5,6 L13.5,12 L12,12 Z M15,4.5 L15,3 L16.5,3 L16.5,4.5 L15,4.5 Z M18,12 L18,3 L19.5,3 L19.5,4.5 L21,4.5 L21,6 L19.5,6 L19.5,12 L18,12 Z M21,4.5 L21,3 L22.5,3 L22.5,4.5 L21,4.5 Z M24,12 L24,3 L25.5,3 L25.5,12 L24,12 Z M24,1.5 L24,0 L25.5,0 L25.5,1.5 L24,1.5 Z M27,10.5 L27,3 L28.5,3 L28.5,10.5 L27,10.5 Z M28.5,12 L28.5,10.5 L31.5,10.5 L31.5,3 L33,3 L33,12 L28.5,12 Z M34.5,12 L34.5,10.5 L39,10.5 L39,12 L34.5,12 Z M39,10.5 L39,7.5 L40.5,7.5 L40.5,10.5 L39,10.5 Z M36,7.5 L36,6 L39,6 L39,7.5 L36,7.5 Z M34.5,6 L34.5,4.5 L36,4.5 L36,6 L34.5,6 Z M36,4.5 L36,3 L39,3 L39,4.5 L36,4.5 Z" transform="translate(131 148)"/><path d="M3,7.5 L3,4.5 L4.5,4.5 L4.5,7.5 L3,7.5 Z M0,12 L0,0 L1.5,0 L1.5,1.5 L3,1.5 L3,4.5 L1.5,4.5 L1.5,12 L0,12 Z M6,12 L6,10.5 L4.5,10.5 L4.5,7.5 L6,7.5 L6,0 L7.5,0 L7.5,12 L6,12 Z M9,12 L9,3 L10.5,3 L10.5,12 L9,12 Z M9,1.5 L9,0 L10.5,0 L10.5,1.5 L9,1.5 Z M12,12 L12,3 L13.5,3 L13.5,4.5 L15,4.5 L15,6 L13.5,6 L13.5,12 L12,12 Z M15,4.5 L15,3 L16.5,3 L16.5,4.5 L15,4.5 Z M18,12 L18,3 L19.5,3 L19.5,4.5 L21,4.5 L21,6 L19.5,6 L19.5,12 L18,12 Z M21,4.5 L21,3 L22.5,3 L22.5,4.5 L21,4.5 Z M24,12 L24,3 L25.5,3 L25.5,12 L24,12 Z M24,1.5 L24,0 L25.5,0 L25.5,1.5 L24,1.5 Z M27,10.5 L27,3 L28.5,3 L28.5,10.5 L27,10.5 Z M28.5,12 L28.5,10.5 L31.5,10.5 L31.5,3 L33,3 L33,12 L28.5,12 Z M34.5,12 L34.5,10.5 L39,10.5 L39,12 L34.5,12 Z M39,10.5 L39,7.5 L40.5,7.5 L40.5,10.5 L39,10.5 Z M36,7.5 L36,6 L39,6 L39,7.5 L36,7.5 Z M34.5,6 L34.5,4.5 L36,4.5 L36,6 L34.5,6 Z M36,4.5 L36,3 L39,3 L39,4.5 L36,4.5 Z" transform="translate(131 185)"/><path d="M3,7.5 L3,4.5 L4.5,4.5 L4.5,7.5 L3,7.5 Z M0,12 L0,0 L1.5,0 L1.5,1.5 L3,1.5 L3,4.5 L1.5,4.5 L1.5,12 L0,12 Z M6,12 L6,10.5 L4.5,10.5 L4.5,7.5 L6,7.5 L6,0 L7.5,0 L7.5,12 L6,12 Z M9,12 L9,3 L10.5,3 L10.5,12 L9,12 Z M9,1.5 L9,0 L10.5,0 L10.5,1.5 L9,1.5 Z M12,12 L12,3 L13.5,3 L13.5,4.5 L15,4.5 L15,6 L13.5,6 L13.5,12 L12,12 Z M15,4.5 L15,3 L16.5,3 L16.5,4.5 L15,4.5 Z M18,12 L18,3 L19.5,3 L19.5,4.5 L21,4.5 L21,6 L19.5,6 L19.5,12 L18,12 Z M21,4.5 L21,3 L22.5,3 L22.5,4.5 L21,4.5 Z M24,12 L24,3 L25.5,3 L25.5,12 L24,12 Z M24,1.5 L24,0 L25.5,0 L25.5,1.5 L24,1.5 Z M27,10.5 L27,3 L28.5,3 L28.5,10.5 L27,10.5 Z M28.5,12 L28.5,10.5 L31.5,10.5 L31.5,3 L33,3 L33,12 L28.5,12 Z M34.5,12 L34.5,10.5 L39,10.5 L39,12 L34.5,12 Z M39,10.5 L39,7.5 L40.5,7.5 L40.5,10.5 L39,10.5 Z M36,7.5 L36,6 L39,6 L39,7.5 L36,7.5 Z M34.5,6 L34.5,4.5 L36,4.5 L36,6 L34.5,6 Z M36,4.5 L36,3 L39,3 L39,4.5 L36,4.5 Z" transform="translate(131 222)"/><path d="M3,7.5 L3,4.5 L4.5,4.5 L4.5,7.5 L3,7.5 Z M0,12 L0,0 L1.5,0 L1.5,1.5 L3,1.5 L3,4.5 L1.5,4.5 L1.5,12 L0,12 Z M6,12 L6,10.5 L4.5,10.5 L4.5,7.5 L6,7.5 L6,0 L7.5,0 L7.5,12 L6,12 Z M9,12 L9,3 L10.5,3 L10.5,12 L9,12 Z M9,1.5 L9,0 L10.5,0 L10.5,1.5 L9,1.5 Z M12,12 L12,3 L13.5,3 L13.5,4.5 L15,4.5 L15,6 L13.5,6 L13.5,12 L12,12 Z M15,4.5 L15,3 L16.5,3 L16.5,4.5 L15,4.5 Z M18,12 L18,3 L19.5,3 L19.5,4.5 L21,4.5 L21,6 L19.5,6 L19.5,12 L18,12 Z M21,4.5 L21,3 L22.5,3 L22.5,4.5 L21,4.5 Z M24,12 L24,3 L25.5,3 L25.5,12 L24,12 Z M24,1.5 L24,0 L25.5,0 L25.5,1.5 L24,1.5 Z M27,10.5 L27,3 L28.5,3 L28.5,10.5 L27,10.5 Z M28.5,12 L28.5,10.5 L31.5,10.5 L31.5,3 L33,3 L33,12 L28.5,12 Z M34.5,12 L34.5,10.5 L39,10.5 L39,12 L34.5,12 Z M39,10.5 L39,7.5 L40.5,7.5 L40.5,10.5 L39,10.5 Z M36,7.5 L36,6 L39,6 L39,7.5 L36,7.5 Z M34.5,6 L34.5,4.5 L36,4.5 L36,6 L34.5,6 Z M36,4.5 L36,3 L39,3 L39,4.5 L36,4.5 Z" transform="translate(131 259)"/><path d="M3,7.5 L3,4.5 L4.5,4.5 L4.5,7.5 L3,7.5 Z M0,12 L0,0 L1.5,0 L1.5,1.5 L3,1.5 L3,4.5 L1.5,4.5 L1.5,12 L0,12 Z M6,12 L6,10.5 L4.5,10.5 L4.5,7.5 L6,7.5 L6,0 L7.5,0 L7.5,12 L6,12 Z M9,12 L9,3 L10.5,3 L10.5,12 L9,12 Z M9,1.5 L9,0 L10.5,0 L10.5,1.5 L9,1.5 Z M12,12 L12,3 L13.5,3 L13.5,4.5 L15,4.5 L15,6 L13.5,6 L13.5,12 L12,12 Z M15,4.5 L15,3 L16.5,3 L16.5,4.5 L15,4.5 Z M18,12 L18,3 L19.5,3 L19.5,4.5 L21,4.5 L21,6 L19.5,6 L19.5,12 L18,12 Z M21,4.5 L21,3 L22.5,3 L22.5,4.5 L21,4.5 Z M24,12 L24,3 L25.5,3 L25.5,12 L24,12 Z M24,1.5 L24,0 L25.5,0 L25.5,1.5 L24,1.5 Z M27,10.5 L27,3 L28.5,3 L28.5,10.5 L27,10.5 Z M28.5,12 L28.5,10.5 L31.5,10.5 L31.5,3 L33,3 L33,12 L28.5,12 Z M34.5,12 L34.5,10.5 L39,10.5 L39,12 L34.5,12 Z M39,10.5 L39,7.5 L40.5,7.5 L40.5,10.5 L39,10.5 Z M36,7.5 L36,6 L39,6 L39,7.5 L36,7.5 Z M34.5,6 L34.5,4.5 L36,4.5 L36,6 L34.5,6 Z M36,4.5 L36,3 L39,3 L39,4.5 L36,4.5 Z" transform="translate(196.5 308)"/><path d="M3,7.5 L3,4.5 L4.5,4.5 L4.5,7.5 L3,7.5 Z M0,12 L0,0 L1.5,0 L1.5,1.5 L3,1.5 L3,4.5 L1.5,4.5 L1.5,12 L0,12 Z M6,12 L6,10.5 L4.5,10.5 L4.5,7.5 L6,7.5 L6,0 L7.5,0 L7.5,12 L6,12 Z M9,12 L9,3 L10.5,3 L10.5,12 L9,12 Z M9,1.5 L9,0 L10.5,0 L10.5,1.5 L9,1.5 Z M12,12 L12,3 L13.5,3 L13.5,4.5 L15,4.5 L15,6 L13.5,6 L13.5,12 L12,12 Z M15,4.5 L15,3 L16.5,3 L16.5,4.5 L15,4.5 Z M18,12 L18,3 L19.5,3 L19.5,4.5 L21,4.5 L21,6 L19.5,6 L19.5,12 L18,12 Z M21,4.5 L21,3 L22.5,3 L22.5,4.5 L21,4.5 Z M24,12 L24,3 L25.5,3 L25.5,12 L24,12 Z M24,1.5 L24,0 L25.5,0 L25.5,1.5 L24,1.5 Z M27,10.5 L27,3 L28.5,3 L28.5,10.5 L27,10.5 Z M28.5,12 L28.5,10.5 L31.5,10.5 L31.5,3 L33,3 L33,12 L28.5,12 Z M34.5,12 L34.5,10.5 L39,10.5 L39,12 L34.5,12 Z M39,10.5 L39,7.5 L40.5,7.5 L40.5,10.5 L39,10.5 Z M36,7.5 L36,6 L39,6 L39,7.5 L36,7.5 Z M34.5,6 L34.5,4.5 L36,4.5 L36,6 L34.5,6 Z M36,4.5 L36,3 L39,3 L39,4.5 L36,4.5 Z" transform="translate(196.5 345)"/><path d="M3,7.5 L3,4.5 L4.5,4.5 L4.5,7.5 L3,7.5 Z M0,12 L0,0 L1.5,0 L1.5,1.5 L3,1.5 L3,4.5 L1.5,4.5 L1.5,12 L0,12 Z M6,12 L6,10.5 L4.5,10.5 L4.5,7.5 L6,7.5 L6,0 L7.5,0 L7.5,12 L6,12 Z M9,12 L9,3 L10.5,3 L10.5,12 L9,12 Z M9,1.5 L9,0 L10.5,0 L10.5,1.5 L9,1.5 Z M12,12 L12,3 L13.5,3 L13.5,4.5 L15,4.5 L15,6 L13.5,6 L13.5,12 L12,12 Z M15,4.5 L15,3 L16.5,3 L16.5,4.5 L15,4.5 Z M18,12 L18,3 L19.5,3 L19.5,4.5 L21,4.5 L21,6 L19.5,6 L19.5,12 L18,12 Z M21,4.5 L21,3 L22.5,3 L22.5,4.5 L21,4.5 Z M24,12 L24,3 L25.5,3 L25.5,12 L24,12 Z M24,1.5 L24,0 L25.5,0 L25.5,1.5 L24,1.5 Z M27,10.5 L27,3 L28.5,3 L28.5,10.5 L27,10.5 Z M28.5,12 L28.5,10.5 L31.5,10.5 L31.5,3 L33,3 L33,12 L28.5,12 Z M34.5,12 L34.5,10.5 L39,10.5 L39,12 L34.5,12 Z M39,10.5 L39,7.5 L40.5,7.5 L40.5,10.5 L39,10.5 Z M36,7.5 L36,6 L39,6 L39,7.5 L36,7.5 Z M34.5,6 L34.5,4.5 L36,4.5 L36,6 L34.5,6 Z M36,4.5 L36,3 L39,3 L39,4.5 L36,4.5 Z" transform="translate(131 296)"/><path d="M3,7.5 L3,4.5 L4.5,4.5 L4.5,7.5 L3,7.5 Z M0,12 L0,0 L1.5,0 L1.5,1.5 L3,1.5 L3,4.5 L1.5,4.5 L1.5,12 L0,12 Z M6,12 L6,10.5 L4.5,10.5 L4.5,7.5 L6,7.5 L6,0 L7.5,0 L7.5,12 L6,12 Z M9,12 L9,3 L10.5,3 L10.5,12 L9,12 Z M9,1.5 L9,0 L10.5,0 L10.5,1.5 L9,1.5 Z M12,12 L12,3 L13.5,3 L13.5,4.5 L15,4.5 L15,6 L13.5,6 L13.5,12 L12,12 Z M15,4.5 L15,3 L16.5,3 L16.5,4.5 L15,4.5 Z M18,12 L18,3 L19.5,3 L19.5,4.5 L21,4.5 L21,6 L19.5,6 L19.5,12 L18,12 Z M21,4.5 L21,3 L22.5,3 L22.5,4.5 L21,4.5 Z M24,12 L24,3 L25.5,3 L25.5,12 L24,12 Z M24,1.5 L24,0 L25.5,0 L25.5,1.5 L24,1.5 Z M27,10.5 L27,3 L28.5,3 L28.5,10.5 L27,10.5 Z M28.5,12 L28.5,10.5 L31.5,10.5 L31.5,3 L33,3 L33,12 L28.5,12 Z M34.5,12 L34.5,10.5 L39,10.5 L39,12 L34.5,12 Z M39,10.5 L39,7.5 L40.5,7.5 L40.5,10.5 L39,10.5 Z M36,7.5 L36,6 L39,6 L39,7.5 L36,7.5 Z M34.5,6 L34.5,4.5 L36,4.5 L36,6 L34.5,6 Z M36,4.5 L36,3 L39,3 L39,4.5 L36,4.5 Z" transform="translate(131 333)"/><path d="M3,7.5 L3,4.5 L4.5,4.5 L4.5,7.5 L3,7.5 Z M0,12 L0,0 L1.5,0 L1.5,1.5 L3,1.5 L3,4.5 L1.5,4.5 L1.5,12 L0,12 Z M6,12 L6,10.5 L4.5,10.5 L4.5,7.5 L6,7.5 L6,0 L7.5,0 L7.5,12 L6,12 Z M9,12 L9,3 L10.5,3 L10.5,12 L9,12 Z M9,1.5 L9,0 L10.5,0 L10.5,1.5 L9,1.5 Z M12,12 L12,3 L13.5,3 L13.5,4.5 L15,4.5 L15,6 L13.5,6 L13.5,12 L12,12 Z M15,4.5 L15,3 L16.5,3 L16.5,4.5 L15,4.5 Z M18,12 L18,3 L19.5,3 L19.5,4.5 L21,4.5 L21,6 L19.5,6 L19.5,12 L18,12 Z M21,4.5 L21,3 L22.5,3 L22.5,4.5 L21,4.5 Z M24,12 L24,3 L25.5,3 L25.5,12 L24,12 Z M24,1.5 L24,0 L25.5,0 L25.5,1.5 L24,1.5 Z M27,10.5 L27,3 L28.5,3 L28.5,10.5 L27,10.5 Z M28.5,12 L28.5,10.5 L31.5,10.5 L31.5,3 L33,3 L33,12 L28.5,12 Z M34.5,12 L34.5,10.5 L39,10.5 L39,12 L34.5,12 Z M39,10.5 L39,7.5 L40.5,7.5 L40.5,10.5 L39,10.5 Z M36,7.5 L36,6 L39,6 L39,7.5 L36,7.5 Z M34.5,6 L34.5,4.5 L36,4.5 L36,6 L34.5,6 Z M36,4.5 L36,3 L39,3 L39,4.5 L36,4.5 Z" transform="translate(262 222)"/><path d="M3,7.5 L3,4.5 L4.5,4.5 L4.5,7.5 L3,7.5 Z M0,12 L0,0 L1.5,0 L1.5,1.5 L3,1.5 L3,4.5 L1.5,4.5 L1.5,12 L0,12 Z M6,12 L6,10.5 L4.5,10.5 L4.5,7.5 L6,7.5 L6,0 L7.5,0 L7.5,12 L6,12 Z M9,12 L9,3 L10.5,3 L10.5,12 L9,12 Z M9,1.5 L9,0 L10.5,0 L10.5,1.5 L9,1.5 Z M12,12 L12,3 L13.5,3 L13.5,4.5 L15,4.5 L15,6 L13.5,6 L13.5,12 L12,12 Z M15,4.5 L15,3 L16.5,3 L16.5,4.5 L15,4.5 Z M18,12 L18,3 L19.5,3 L19.5,4.5 L21,4.5 L21,6 L19.5,6 L19.5,12 L18,12 Z M21,4.5 L21,3 L22.5,3 L22.5,4.5 L21,4.5 Z M24,12 L24,3 L25.5,3 L25.5,12 L24,12 Z M24,1.5 L24,0 L25.5,0 L25.5,1.5 L24,1.5 Z M27,10.5 L27,3 L28.5,3 L28.5,10.5 L27,10.5 Z M28.5,12 L28.5,10.5 L31.5,10.5 L31.5,3 L33,3 L33,12 L28.5,12 Z M34.5,12 L34.5,10.5 L39,10.5 L39,12 L34.5,12 Z M39,10.5 L39,7.5 L40.5,7.5 L40.5,10.5 L39,10.5 Z M36,7.5 L36,6 L39,6 L39,7.5 L36,7.5 Z M34.5,6 L34.5,4.5 L36,4.5 L36,6 L34.5,6 Z M36,4.5 L36,3 L39,3 L39,4.5 L36,4.5 Z" transform="translate(262 259)"/><path d="M3,7.5 L3,4.5 L4.5,4.5 L4.5,7.5 L3,7.5 Z M0,12 L0,0 L1.5,0 L1.5,1.5 L3,1.5 L3,4.5 L1.5,4.5 L1.5,12 L0,12 Z M6,12 L6,10.5 L4.5,10.5 L4.5,7.5 L6,7.5 L6,0 L7.5,0 L7.5,12 L6,12 Z M9,12 L9,3 L10.5,3 L10.5,12 L9,12 Z M9,1.5 L9,0 L10.5,0 L10.5,1.5 L9,1.5 Z M12,12 L12,3 L13.5,3 L13.5,4.5 L15,4.5 L15,6 L13.5,6 L13.5,12 L12,12 Z M15,4.5 L15,3 L16.5,3 L16.5,4.5 L15,4.5 Z M18,12 L18,3 L19.5,3 L19.5,4.5 L21,4.5 L21,6 L19.5,6 L19.5,12 L18,12 Z M21,4.5 L21,3 L22.5,3 L22.5,4.5 L21,4.5 Z M24,12 L24,3 L25.5,3 L25.5,12 L24,12 Z M24,1.5 L24,0 L25.5,0 L25.5,1.5 L24,1.5 Z M27,10.5 L27,3 L28.5,3 L28.5,10.5 L27,10.5 Z M28.5,12 L28.5,10.5 L31.5,10.5 L31.5,3 L33,3 L33,12 L28.5,12 Z M34.5,12 L34.5,10.5 L39,10.5 L39,12 L34.5,12 Z M39,10.5 L39,7.5 L40.5,7.5 L40.5,10.5 L39,10.5 Z M36,7.5 L36,6 L39,6 L39,7.5 L36,7.5 Z M34.5,6 L34.5,4.5 L36,4.5 L36,6 L34.5,6 Z M36,4.5 L36,3 L39,3 L39,4.5 L36,4.5 Z" transform="translate(262 296)"/></g></svg>