<svg width="55px" height="30px" xmlns="http://www.w3.org/2000/svg" xmlns:xlink="http://www.w3.org/1999/xlink"><defs><path d="M3 10.5v-3h1.5v3H3zM0 15V3h1.5v1.5H3v3H1.5V15H0zm6 0v-1.5H4.5v-3H6V3h1.5v12H6zm3 0V6h1.5v9H9zM9 4.5V3h1.5v1.5H9zM12 15V6h1.5v1.5H15V9h-1.5v6H12zm3-7.5V6h1.5v1.5H15zm3 7.5V6h1.5v1.5H21V9h-1.5v6H18zm3-7.5V6h1.5v1.5H21zm3 7.5V6h1.5v9H24zm0-10.5V3h1.5v1.5H24zm3 9V6h1.5v7.5H27zm1.5 1.5v-1.5h3V6H33v9h-4.5zm6 0v-1.5H39V15h-4.5zm4.5-1.5v-3h1.5v3H39zm-3-3V9h3v1.5h-3zM34.5 9V7.5H36V9h-1.5zM36 7.5V6h3v1.5h-3z" id="a"/></defs><g transform="translate(0 -3)" fill="none" fill-rule="evenodd"><use fill="#FAD3D3" xlink:href="#a"/><use fill="#FFDFDF" xlink:href="#a"/></g></svg>
